<?xml version="1.0" encoding="UTF-8"?>
<!DOCTYPE svg PUBLIC "-//W3C//DTD SVG 1.1//EN" "http://www.w3.org/Graphics/SVG/1.1/DTD/svg11.dtd">
<!-- Creator: CorelDRAW -->
<svg xmlns="http://www.w3.org/2000/svg" xml:space="preserve" width="4.77in" height="4.136in" version="1.1" style="shape-rendering:geometricPrecision; text-rendering:geometricPrecision; image-rendering:optimizeQuality; fill-rule:evenodd; clip-rule:evenodd"
viewBox="0 0 4770 4136"
 xmlns:xlink="http://www.w3.org/1999/xlink"
 xmlns:xodm="http://www.corel.com/coreldraw/odm/2003">
 <defs>
  <style type="text/css">
   <![CDATA[
    .str0 {stroke:#22C176;stroke-width:55.56;stroke-miterlimit:2.61313}
    .fil0 {fill:#22C176}
   ]]>
  </style>
 </defs>
 <g id="Layer_x0020_1">
  <metadata id="CorelCorpID_0Corel-Layer"/>
  <g id="_2052275715088">
   <path class="fil0 str0" d="M1069.77 1709.41c394.3,0 788.6,0 1182.91,0 388.7,0 789.8,9.43 1176.73,-1.71 171.94,-4.94 355.98,-31.69 504.87,-85.96 187.36,-68.29 361.67,-174.08 490.46,-322.05 11.56,-13.28 23.63,-23.71 34.98,-37.83 100.23,-124.71 157.4,-218.35 225.44,-368.27 25.22,-55.57 68.9,-153.37 83.4,-214 -394.24,0 -788.48,0 -1182.71,0 -393.33,0 -789.36,-4.54 -1182.35,0.84 -516.34,7.07 -904.53,222.39 -1150.52,619 -37.2,59.98 -69.62,126.96 -101.89,195.08 -18.9,39.89 -76.64,174.05 -81.31,214.9zm215.87 -147.14c667.79,0 1335.58,0 2003.37,0 340.37,0 568.42,-32.79 817.38,-185.02 110.94,-67.83 186.92,-143.06 263.49,-236.45 43.55,-53.11 157.6,-228.79 182.4,-313.2 -80.5,-6.01 -392.37,-0.91 -497.74,-0.91l-1499.81 0c-366.01,0 -629.57,40.71 -891.86,231.81 -117.47,85.59 -217.14,207.65 -292.03,332.79 -23.78,39.73 -71.62,123.26 -85.2,170.99z"/>
   <path class="fil0 str0" d="M189.15 2969.67l1553.17 0c339.33,0 575.31,-5.44 882,-153.08 221.48,-106.63 406.76,-300.08 523.01,-513.32 54.97,-100.85 124.88,-244.06 159.07,-363.41 -517.89,0 -1035.78,0 -1553.66,0 -173.89,0 -324.15,-1.28 -493.44,27.09 -305.08,51.12 -537.26,186.11 -692.86,343.7 -77.57,78.56 -157.25,177.91 -221,294.5 -34.98,63.98 -148.91,291.13 -156.29,364.53zm215.67 -148.03c132.05,8.57 291.14,0.89 426.15,0.89 256.83,0 1077.63,9.44 1274.85,-9.84 300.32,-29.37 486.43,-125.5 678.24,-279.09l54.49 -54.77c74.91,-66.76 225.39,-298.87 250.72,-391.33 -136.88,-6.08 -286.87,-0.56 -425.19,-0.56 -239.72,0 -1095.84,-8.79 -1270.69,9.42 -255.12,26.57 -428.23,93.07 -622.36,231.34 -71.17,50.69 -154.66,140.25 -210.52,216.5 -37.31,50.93 -137.07,207.2 -155.69,277.44z"/>
   <path class="fil0 str0" d="M-1.89 3995.59c211.66,0 423.32,0.08 634.98,0.02 317.87,-0.1 599.27,-71.74 818.44,-289.53 148.35,-147.41 209.51,-312.08 288.46,-503.64 -43.54,-8.36 -543.53,-2.29 -633.01,-2.33 -474.15,-0.2 -811.13,157.8 -1018.84,569.55 -19.93,39.51 -87.46,184.45 -90.04,225.93zm220.87 -147.14c510.23,0 917.92,63.65 1215.8,-356.87 21.92,-30.95 70.27,-106.48 82.17,-144.21 -148.43,-1.83 -297.87,-0.1 -446.42,-0.18 -195.17,-0.11 -378.31,32.33 -539.01,131.43 -97.44,60.09 -163.93,132.87 -227.52,220.44 -25.48,35.09 -70.89,104.06 -85.02,149.39z"/>
   <path class="fil0 str0" d="M336.25 2349.56c15.63,-13.3 60.74,-76.4 85.92,-99.94 59.31,-55.44 41.81,-39.26 40.17,-137.67 -6.04,-360.51 59.61,-600.54 208.02,-915.99 35.34,-75.12 97.3,-173.5 141.93,-232.99 94.92,-126.54 81.65,-105.15 168.94,-206 71.38,-82.49 212.78,-198.67 301.42,-260.99 632.11,-444.36 1519.09,-462.59 2161.98,-24.13 72.96,49.76 70.53,61.23 125.41,60.78 57.46,-0.46 135.69,4.54 190.28,-1.43l-104.94 -87.8c-263.52,-216.94 -622.79,-362.11 -968.57,-416.89 -669.28,-106.03 -1322.06,144.32 -1761.24,575.84 -66.59,65.43 -87.59,93.81 -140.98,155.86 -62.63,72.78 -156.3,205.2 -202.48,292.27 -97.28,183.39 -168.64,342.93 -220.65,571.22 -25.12,110.26 -41.28,231.56 -46.91,349.41 -2.98,62.44 -0.07,338.65 21.7,378.47zm3917.45 -716.84c63.94,344.99 74.82,611.61 -21.58,958.54 -83.45,300.33 -198.4,481.64 -377.15,711.27 -38.52,49.49 -87.97,100.31 -129.82,141.04 -370.19,360.22 -837.31,548.12 -1383.94,548.12 -145.79,0 -292.93,-26.06 -427.34,-57.28 -60.34,-14.02 -125.53,-34.78 -183.59,-55.73l-177.27 -70.7c-26.88,37.74 -99.82,88.31 -112.13,104.72 68.81,30.26 127.76,62.21 202.63,89.3 252.67,91.4 463.32,136.32 744.57,135.79 1347.08,-2.54 2334.31,-1272.01 1994.31,-2593.29 -15.42,7.28 -43.76,32.37 -63.62,45.09 -21.88,14 -44.19,30.65 -65.07,43.15z"/>
  </g>
 </g>
</svg>
